PathFileType	4	(X/Y/Z)	E:\Marcel_BSc\Ayumi_22_01_2025\22-01-2025\sumo_dl_2.trc
DataRate	CameraRate	NumFrames	NumMarkers	Units	OrigDataRate	OrigDataStartFrame	OrigNumFrames
200.0	200.0	5	47	mm	200.0	1721	2294	
Frame#	Time	LBHD			FHD			RBHD			RBAR			LBAR			RSACR			LSACR			USACR			C7			CLAV			T10			RSHO			LSHO			LTHI1			LTHI3			LTHI2			LTIB1			LTIB2			LTIB3			LMMAL			LLMAL			LHEE			LMT1			LMT5			LMT3			RTHI1			RTHI2			RTHI3			RTIB1			RTIB3			RTIB2			RLMAL			RMMAL			RHEE			RMT5			RMT1			RMT3			LDUPA			LMUPA			LUUPA			LRAD			RUL			RRAD			RUFIN			RMUPA			RDUPA			RUUPA			
		X1	Y1	Z1	X2	Y2	Z2	X3	Y3	Z3	X4	Y4	Z4	X5	Y5	Z5	X6	Y6	Z6	X7	Y7	Z7	X8	Y8	Z8	X9	Y9	Z9	X10	Y10	Z10	X11	Y11	Z11	X12	Y12	Z12	X13	Y13	Z13	X14	Y14	Z14	X15	Y15	Z15	X16	Y16	Z16	X17	Y17	Z17	X18	Y18	Z18	X19	Y19	Z19	X20	Y20	Z20	X21	Y21	Z21	X22	Y22	Z22	X23	Y23	Z23	X24	Y24	Z24	X25	Y25	Z25	X26	Y26	Z26	X27	Y27	Z27	X28	Y28	Z28	X29	Y29	Z29	X30	Y30	Z30	X31	Y31	Z31	X32	Y32	Z32	X33	Y33	Z33	X34	Y34	Z34	X35	Y35	Z35	X36	Y36	Z36	X37	Y37	Z37	X38	Y38	Z38	X39	Y39	Z39	X40	Y40	Z40	X41	Y41	Z41	X42	Y42	Z42	X43	Y43	Z43	X44	Y44	Z44	X45	Y45	Z45	X46	Y46	Z46	X47	Y47	Z47	
1721	8.595	-55.479294	1088.276	-921.35632	-73.261581	1100.1171	-982.78052	-29.852737	1069.9924	-1051.9633	252.96555	275.74271	-2087.2175	255.31799	274.76294	134.10179	528.3479	743.45612	-1029.775	531.34515	748.28033	-958.11444	520.19922	754.37915	-993.6734	140.55791	971.95441	-969.04187	114.55492	820.11584	-976.70929	384.03088	869.98224	-996.29175	83.411476	837.83783	-1124.772	114.66695	838.19659	-817.71979	429.57291	525.49304	-661.3576	395.09317	475.95477	-634.92035	373.36368	520.84857	-625.63885	324.30533	243.53842	-495.05322	362.33508	234.68187	-526.53375	339.53833	180.64247	-497.93817	289.81155	69.85405	-540.72565	347.33881	74.219711	-495.26263	354.20816	34.203636	-547.41681	207.37001	45.707146	-418.39658	275.76019	25.141001	-375.15686	228.22484	40.133514	-391.32593	432.39349	512.19971	-1306.9606	379.68597	514.2171	-1347.1726	394.47845	466.8338	-1334.5459	331.18927	273.07193	-1446.0916	343.77969	208.80247	-1433.8441	368.16711	266.75134	-1414.2693	353.9245	72.100082	-1420.4287	279.10355	71.943718	-1389.1936	355.74582	32.342735	-1361.1324	288.67035	25.921114	-1539.0305	228.2422	35.490921	-1511.2211	250.90018	33.512753	-1532.2662	267.02643	685.38599	-749.13788	218.58414	675.29059	-755.83679	205.92868	735.58228	-758.71796	273.86514	354.45236	-709.25775	210.86157	353.62006	-1263.0381	207.84958	345.71509	-1201.1761	208.78098	270.55817	-1203.4796	159.32135	750.61578	-1203.9144	177.87091	692.38995	-1218.433	204.90527	766.92133	-1215.1665
1722	8.6	-55.681885	1087.2941	-921.46472	-73.35817	1099.0115	-982.89624	-30.071869	1069.0542	-1052.0288	253.01799	275.0271	-2087.3396	255.25453	273.84641	134.00194	528.38373	742.99194	-1029.7893	531.28613	748.05505	-958.05554	520.11139	754.14862	-993.59619	140.39658	971.11102	-969.09943	114.4651	819.3858	-976.64984	383.92865	869.48627	-996.35779	83.347229	836.94189	-1124.8456	114.66129	837.50757	-817.68604	429.59756	525.4386	-661.26282	395.13483	475.9166	-634.79205	373.39304	520.84888	-625.56824	323.99612	243.47704	-496.11569	362.33429	234.63821	-526.44128	339.34506	180.64	-498.16806	289.76376	69.936211	-540.66437	347.33408	74.238754	-495.23505	354.2153	34.182106	-547.38953	207.35857	45.758739	-418.33716	276.36267	24.495535	-374.92334	228.20987	40.158562	-391.27789	432.27948	512.20959	-1306.8409	379.61398	514.15082	-1347.106	394.42474	466.7847	-1334.5574	331.01074	272.61926	-1446.8209	343.9548	208.42308	-1433.7249	368.0621	266.73471	-1414.2314	353.91809	72.102921	-1420.4716	279.08228	71.930771	-1389.1907	355.75259	32.340031	-1361.1343	288.65994	25.921854	-1539.0388	228.23468	35.491768	-1511.2268	250.91299	33.524586	-1532.2711	266.84915	684.66705	-749.15466	218.36469	674.48004	-755.88806	205.57529	734.83331	-758.8324	274.0318	353.69427	-709.3241	211.02286	352.55856	-1263.1788	207.87195	344.85294	-1201.2202	208.79301	269.71017	-1203.5778	159.26617	749.85583	-1203.9351	177.87489	691.51068	-1218.4756	204.99396	765.86896	-1215.2249
1723	8.605	-55.939415	1086.4309	-921.54034	-73.545013	1098.1174	-982.92059	-30.257843	1068.1097	-1052.0817	253.08078	274.27197	-2087.4324	255.25528	273.02701	133.92485	528.38007	742.63293	-1029.7502	531.32111	747.72272	-958.02521	520.33783	753.55975	-993.69153	140.14224	970.26526	-969.15271	114.49036	818.46179	-976.86285	383.87036	869.56787	-996.05176	83.205139	836.25867	-1124.9362	114.44949	836.48254	-817.89563	429.58932	525.35449	-661.20355	395.12918	475.89383	-634.69055	373.38065	520.83136	-625.52551	323.80246	243.48938	-496.39062	362.31644	234.70514	-526.39142	339.2475	180.71169	-498.23712	289.74713	69.946991	-540.62891	347.34247	74.263405	-495.18527	354.22141	34.194916	-547.34741	207.37314	45.739582	-418.31689	275.78635	25.172653	-375.08344	228.22868	40.166073	-391.27896	432.15863	512.17938	-1306.6643	379.53827	514.10309	-1347.0159	394.34692	466.74326	-1334.5481	331.06912	272.52365	-1446.8104	343.66672	208.68692	-1433.7854	367.97495	266.73083	-1414.1604	353.85822	72.147743	-1420.5095	279.06143	71.943573	-1389.2245	355.758	32.327534	-1361.1495	288.67416	25.918421	-1539.0406	228.22693	35.4776	-1511.2375	250.9675	33.569103	-1532.2645	266.71164	683.85522	-749.18048	218.24747	673.68134	-755.94153	205.47649	734.0304	-758.8382	273.81378	352.87119	-709.35803	210.88339	352.00565	-1263.1317	207.8989	344.06226	-1201.2385	208.83124	268.94333	-1203.6473	159.20592	749.03229	-1203.9713	177.84044	690.66461	-1218.4506	204.91112	765.09534	-1215.2576
1724	8.61	-56.101593	1085.5311	-921.47113	-73.757378	1097.1653	-983.00952	-30.535364	1067.2217	-1052.1666	253.12543	273.53381	-2087.4958	255.18834	272.08609	133.84631	528.38971	742.31812	-1029.7378	531.29242	747.44934	-958.00677	520.36768	753.23096	-993.70068	139.88202	969.50104	-969.21338	114.39633	817.72253	-976.854	383.85501	868.19232	-996.4104	83.078506	835.3855	-1124.9702	114.45502	835.7572	-817.89642	428.92081	525.39038	-661.30585	395.16251	475.91251	-634.56506	373.35474	520.8103	-625.48688	323.62088	243.48361	-496.65454	362.28931	234.71286	-526.34967	339.24356	180.78406	-498.17206	289.75314	69.983688	-540.57672	347.36569	74.276848	-495.15387	354.23718	34.186527	-547.31921	207.35094	45.768295	-418.25049	275.79529	25.184273	-375.0513	228.18156	40.170696	-391.20981	432.05466	512.10565	-1306.629	379.43188	514.0625	-1346.9526	394.20792	466.68076	-1334.5494	331.08258	272.47354	-1446.7864	343.59119	208.6277	-1433.7211	367.89423	266.70502	-1414.1296	353.87601	72.098038	-1420.519	279.02469	71.929619	-1389.2302	355.74155	32.334774	-1361.1506	288.70801	25.950937	-1539.0364	228.222	35.470387	-1511.2493	250.99326	33.589417	-1532.2834	266.60617	683.12109	-749.23486	218.09186	672.82648	-756.00659	205.32562	733.19373	-758.86353	274.25375	352.10345	-709.5282	210.94952	351.10867	-1263.2428	207.89401	343.2923	-1201.3135	208.79822	268.07217	-1203.7908	159.19363	748.16437	-1204.0286	177.74928	689.92896	-1218.3976	204.88155	764.25568	-1215.2544
1725	8.615	-56.39782	1084.7002	-921.54138	-73.966652	1096.283	-982.99994	-30.770798	1066.3545	-1052.2214	253.20657	272.80869	-2087.5508	255.1953	271.31308	133.78151	528.43768	742.00452	-1029.7538	531.20044	747.23303	-957.99475	520.23077	753.06952	-993.66052	139.59393	968.66693	-969.33026	114.38833	816.85242	-977.00403	383.66013	867.88831	-996.53424	82.994644	834.6908	-1125.0978	114.39588	834.85242	-818.04785	428.89017	525.4397	-661.28607	395.147	475.8765	-634.46277	373.36957	520.80072	-625.4613	323.44528	243.41373	-496.46686	362.30963	234.70781	-526.34521	339.31586	180.72954	-498.11151	289.75278	70.014053	-540.53229	347.38199	74.298698	-495.10858	354.25	34.190063	-547.2807	207.35835	45.757828	-418.21085	276.14172	24.900723	-375.2352	228.19884	40.182171	-391.20737	432.06302	511.94012	-1306.6694	379.32751	513.95422	-1346.8828	394.09216	466.58554	-1334.5631	332.47845	272.18085	-1445.3334	343.5748	208.62665	-1433.718	367.83801	266.66867	-1414.0719	353.85245	72.138748	-1420.5684	278.99185	71.945541	-1389.2451	355.75571	32.34024	-1361.1578	288.71271	25.947281	-1539.0546	228.22284	35.46785	-1511.2626	251.02853	33.593918	-1532.2848	266.44849	682.31158	-749.32697	218.03696	672.08734	-756.04236	205.21207	732.39294	-758.96344	274.11264	351.31699	-709.57819	210.9166	350.44464	-1263.2463	207.91914	342.50574	-1201.3386	208.84889	267.34363	-1203.8025	159.11441	747.41168	-1204.0046	177.72656	689.06403	-1218.3976	204.79163	763.48315	-1215.3308
